# Blender v2.81 (sub 16) OBJ File: 'Pillar1.blend'
# www.blender.org
mtllib crystal.mtl
o crystal
v -0.111111 -0.027778 -0.011111
v -0.011111 0.222222 -0.011111
v -0.011111 -0.027778 -0.111111
v 0.088889 -0.027778 -0.011111
v -0.011111 -0.277778 -0.011111
v -0.011111 -0.027778 0.088889
v 0.088889 -0.027778 -0.011111
v -0.011111 0.222222 -0.011111
v -0.011111 -0.027778 0.088889
vt 0.502635 0.460521
vt 0.618302 0.021930
vt 0.733968 0.460521
vt 0.618301 0.504380
vt 0.733968 0.942971
vt 0.502635 0.942971
vt 0.234374 0.522728
vt 0.234374 0.977273
vt 0.011161 0.914577
vt 0.011161 0.085423
vt 0.234374 0.022727
vt 0.234374 0.477273
vt 0.479908 0.977273
vt 0.256695 0.585424
vt 0.479908 0.522728
vt 0.256695 0.414577
vt 0.479908 0.022727
vt 0.479908 0.477273
vt 0.872767 0.021930
vt 0.988433 0.460521
vt 0.757101 0.460521
vt 0.757101 0.942970
vt 0.872768 0.504380
vt 0.988433 0.942970
vn -0.6804 0.2722 -0.6804
vn 0.6804 0.2722 -0.6804
vn -0.6804 -0.2722 -0.6804
vn 0.6804 -0.2722 0.6804
vn 0.6804 -0.2722 -0.6804
vn 0.6804 0.2722 0.6804
vn -0.6804 0.2722 0.6804
vn -0.6804 -0.2722 0.6804
usemtl None.002
s 1
f 1/1/1 2/2/1 3/3/1
f 2/4/2 4/5/2 3/6/2
f 5/7/3 1/8/3 3/9/3
f 4/10/4 6/11/4 5/12/4
f 5/13/5 3/14/5 4/15/5
f 7/16/6 8/17/6 9/18/6
f 2/19/7 1/20/7 6/21/7
f 1/22/8 5/23/8 6/24/8
