# Blender v2.81 (sub 16) OBJ File: 'Pillar1.blend'
# www.blender.org
mtllib floating_part.mtl
o floating_part
v -0.210526 0.360526 -0.210526
v 0.289474 0.310526 -0.210526
v 0.289474 -0.239474 -0.210526
v 0.289474 0.060526 0.289474
v 0.289474 -0.489474 0.289474
v -0.210526 0.360526 -0.210526
v -0.210526 0.310526 0.289474
v -0.210526 -0.239474 0.289474
v 0.289474 -0.239474 -0.210526
v 0.289474 0.310526 -0.210526
v -0.210526 -0.239474 0.289474
v -0.210526 -0.239474 0.289474
v -0.210526 0.010526 -0.210526
v -0.210526 0.310526 0.289474
v -0.210526 0.010526 -0.210526
v 0.289474 -0.489474 0.289474
v 0.289474 -0.239474 -0.210526
v -0.210526 0.010526 -0.210526
v -0.210526 0.360526 -0.210526
vt 0.602349 0.520661
vt 0.322187 0.369146
vt 0.322187 0.024793
vt 0.602349 0.176309
vt 0.014008 0.176309
vt 0.294171 0.024793
vt 0.294170 0.369146
vt 0.014008 0.520661
vt 0.646968 0.901030
vt 0.365636 0.901030
vt 0.358748 0.596825
vt 0.671149 0.562387
vt 0.630595 0.234079
vt 0.630595 0.018480
vt 0.915350 0.049280
vt 0.915350 0.388078
vt 0.985762 0.563935
vt 0.985762 0.902733
vt 0.701007 0.933533
vt 0.701007 0.717934
vt 0.015597 0.566116
vt 0.327531 0.634986
vt 0.327531 0.979339
vt 0.015597 0.910469
vn 0.0000 0.0000 1.0000
vn 1.0000 0.0000 0.0000
vn 0.2762 0.9206 0.2762
vn 0.0000 0.0000 -1.0000
vn -1.0000 0.0000 0.0000
vn -0.4082 -0.8165 -0.4082
usemtl None
s off
f 5/1/1 4/2/1 7/3/1 8/4/1
f 3/5/2 2/6/2 4/7/2 5/8/2
f 2/9/3 6/10/3 7/11/3 4/12/3
f 18/13/4 1/14/4 10/15/4 9/16/4
f 11/17/5 14/18/5 19/19/5 15/20/5
f 13/21/6 17/22/6 16/23/6 12/24/6
